<?xml version="1.0" standalone="no"?>
<!DOCTYPE svg PUBLIC "-//W3C//DTD SVG 20010904//EN"
 "http://www.w3.org/TR/2001/REC-SVG-20010904/DTD/svg10.dtd">
<svg version="1.0" xmlns="http://www.w3.org/2000/svg"
 width="16.000000pt" height="16.000000pt" viewBox="0 0 16.000000 16.000000"
 preserveAspectRatio="xMidYMid meet">
<metadata>
Created by potrace 1.11, written by Peter Selinger 2001-2013
</metadata>
<g transform="translate(0.000000,16.000000) scale(0.002286,-0.002286)"
fill="#000000" stroke="none">
<path d="M1805 6569 c-54 -7 -127 -19 -192 -34 -13 -3 -55 -17 -95 -31 -378
-136 -679 -445 -817 -837 -17 -48 -33 -98 -35 -110 -2 -12 -9 -41 -15 -65 -7
-24 -14 -58 -17 -75 -2 -18 -7 -57 -12 -87 -9 -73 -9 -385 1 -479 18 -164 96
-412 208 -661 113 -248 268 -557 382 -760 83 -147 96 -177 101 -235 3 -33 10
-98 16 -145 6 -47 13 -103 15 -125 3 -22 7 -56 10 -75 3 -19 7 -55 10 -80 3
-25 13 -88 21 -140 8 -52 17 -111 20 -130 11 -77 24 -156 29 -180 3 -14 10
-52 16 -85 66 -363 140 -674 219 -921 181 -557 404 -846 683 -882 241 -31 439
118 608 460 47 94 125 283 264 643 75 194 146 340 200 415 65 87 75 90 125 33
81 -92 114 -165 361 -798 160 -409 306 -624 482 -710 81 -39 118 -48 198 -47
85 1 118 9 194 47 159 77 281 221 403 475 73 152 185 478 227 660 2 8 14 60
28 115 33 128 78 349 113 540 14 83 28 159 30 170 2 11 6 42 10 70 3 27 7 52
9 55 1 3 6 30 9 61 4 31 8 65 10 75 2 11 7 46 11 79 4 32 8 66 10 75 1 8 6 42
9 75 4 33 9 71 11 85 6 41 14 110 21 185 4 43 14 80 25 97 11 14 19 29 19 32
0 3 13 28 29 55 61 103 267 504 348 676 120 256 223 529 247 655 9 46 16 85
22 120 10 63 13 424 3 490 -16 115 -18 124 -38 205 -88 361 -300 660 -607 857
-179 115 -424 190 -624 190 -202 1 -419 -48 -905 -202 -456 -145 -530 -163
-695 -166 -174 -2 -180 -1 -810 194 -210 65 -358 109 -398 117 -9 2 -39 9 -67
15 -160 37 -321 52 -430 39z m350 -447 c72 -17 229 -61 350 -98 121 -37 299
-91 395 -121 96 -29 184 -55 195 -58 11 -2 52 -12 90 -21 39 -8 79 -17 90 -20
85 -20 280 -24 388 -10 61 9 256 53 310 70 23 8 58 19 77 24 19 5 161 49 315
97 154 48 287 88 295 90 8 2 41 10 72 20 31 9 69 18 84 21 14 3 56 12 93 21
442 105 906 -211 1030 -702 32 -126 40 -246 31 -464 -5 -144 -44 -283 -148
-536 -73 -178 -300 -633 -441 -883 -62 -112 -93 -177 -96 -205 -2 -23 -7 -71
-11 -107 -3 -36 -7 -72 -9 -80 -1 -8 -6 -46 -10 -85 -4 -38 -9 -79 -11 -90 -2
-11 -6 -42 -9 -70 -3 -27 -7 -66 -10 -85 -3 -19 -8 -48 -10 -65 -2 -16 -6 -43
-9 -60 -2 -16 -8 -50 -11 -75 -4 -25 -9 -54 -11 -65 -2 -11 -7 -40 -10 -65 -3
-25 -7 -52 -9 -60 -2 -8 -7 -35 -10 -60 -4 -25 -20 -112 -36 -195 -16 -82 -31
-159 -33 -170 -55 -279 -176 -678 -268 -878 -70 -153 -179 -297 -224 -297 -15
0 -84 65 -111 105 -46 69 -114 211 -182 385 -40 102 -76 194 -81 205 -4 11
-36 92 -71 180 -73 188 -152 352 -217 450 -112 171 -281 281 -422 275 -25 -1
-52 -2 -60 -2 -35 -1 -119 -30 -170 -60 -110 -63 -213 -191 -309 -384 -60
-122 -60 -120 -183 -439 -117 -304 -163 -414 -214 -510 -46 -87 -107 -170
-139 -191 -38 -25 -75 0 -158 107 -76 98 -219 466 -288 742 -41 162 -47 188
-53 217 -3 14 -7 34 -10 45 -11 47 -56 277 -70 355 -9 47 -18 96 -21 110 -2
13 -7 42 -10 65 -3 22 -8 51 -10 65 -3 14 -7 43 -10 65 -2 22 -7 51 -9 65 -3
14 -8 43 -11 65 -2 22 -7 56 -10 75 -2 19 -7 58 -10 85 -3 28 -8 64 -10 80 -8
57 -24 190 -30 250 -14 139 -17 150 -83 265 -213 374 -456 877 -532 1100 -12
36 -26 74 -31 85 -18 40 -46 183 -49 250 -14 303 11 481 95 670 23 53 80 151
95 165 3 3 18 22 33 42 48 65 130 139 212 192 77 51 184 103 225 111 11 2 24
6 28 9 4 2 28 7 52 11 25 4 47 9 49 11 14 13 220 -8 336 -34z"/>
</g>
</svg>
