<svg xmlns:svg="http://www.w3.org/2000/svg" xmlns="http://www.w3.org/2000/svg" version="1.1" xml:space="preserve" width="358.3" height="63.9" viewBox="0 0 358.3 63.9"><g transform="matrix(1.25,0,0,-1.25,0,63.9)"><g transform="scale(0.1,0.1)"><path d="m2832.7 360.7c0-0.6-0.1-1.2-0.1-1.7l0 0c0-2-0.5-6-1.8-10.9-2.2-8.7-6.5-20.2-11.7-32.1-7.8-17.9-17.5-36.9-25.3-51.4-3.9-7.2-7.3-13.3-9.7-17.6-1.2-2.1-2.2-3.8-2.8-4.9-0.7-1.1-1-1.7-1-1.7l-1.9-3.2-0.3-3.7c0 0-0.1-0.7-0.2-2.3-1.1-11.4-6.5-64.3-17.7-113.2-5.6-24.4-12.7-48-20.7-64-3.9-8-8.1-14-11.5-17.2-1.7-1.6-3-2.5-4-3-0.9-0.4-1.3-0.5-1.9-0.5-0.6 0.2-1.8 0.8-3.6 2.6-2 2-4.5 5.3-7 9.7-4.5 7.6-9 18.3-13.4 29.8-6.7 17.3-13.2 36.5-21.5 52.6-4.2 8.1-8.8 15.5-15.1 21.9-3.2 3.1-6.9 6-11.3 8.2-4.4 2.1-9.6 3.5-14.8 3.5-4.6 0-9.1-1-13.1-2.7-7.5-3.2-13-8.4-17.5-13.9-7.8-9.8-13.3-21.6-18.5-34.2-7.7-18.8-14.6-39.6-21.9-55.1-3.6-7.7-7.3-14.1-10.5-17.8-1.6-1.9-3-3.1-3.9-3.7-0.7-0.5-1.1-0.6-1.4-0.7-0.5 0-1 0.1-2 0.6-2 0.9-5.8 4.2-9.7 10.3-7 10.5-14 28.2-19.7 48.2-8.6 30.1-14.8 65.7-18.8 93.4-2 13.9-3.4 25.9-4.3 34.4-0.5 4.2-0.8 7.6-1 9.9-0.1 1.1-0.2 2-0.2 2.6l-0.1 0.8-0.3 3.7-1.9 3.2-0.6 1c-2.9 5-16.2 28.4-28.7 54-6.2 12.8-12.2 26.2-16.5 37.9-2.1 5.8-3.9 11.2-5 15.7-1.1 4.5-1.6 8.2-1.6 10l0 0.9-0.1 0.9c-0.5 4.9-0.7 9.5-0.7 14 0.1 29.5 10.1 49.5 23.6 63.2 13.4 13.6 31.1 20.5 45.4 21l1.4 0c5.8 0 15.1-1.5 25.5-4.2 15.8-4 34.3-10.3 51.7-15.7 8.7-2.7 17.2-5.2 25.1-7 8-1.9 15.3-3.2 22.6-3.2 1 0 2 0.1 3 0.1 1-0.1 2-0.1 3-0.1 4.9 0 9.8 0.6 14.9 1.6 8.8 1.7 18.4 4.3 28.5 7.4 15 4.6 31.2 10 45.8 14.2 7.4 2.1 14.3 3.9 20.4 5.1 6.2 1.2 11.5 1.9 15.3 1.8l1.4 0c14.4-0.5 32-7.4 45.4-21 13.4-13.7 23.5-33.7 23.6-63.1 0-4.4-0.2-9.1-0.7-14l0.1 0zm0.7 100.5c-19.6 19.7-44.4 29.8-67.6 30.8-0.9 0-1.8 0.1-2.7 0.1-10.7-0.1-21.9-2.3-33.7-5.2-17.6-4.5-36.5-10.9-53.3-16.1-8.4-2.6-16.2-4.9-22.8-6.5-6.6-1.6-12.1-2.4-15-2.3l-1.3 0-1.7 0.2-1.6-0.2-1.3-0.1c-1.9 0-5 0.3-8.8 1-6.7 1.2-15.4 3.6-24.9 6.5-14.3 4.4-30.6 9.9-46.3 14.4-7.9 2.3-15.6 4.3-23.1 5.8-7.5 1.5-14.7 2.5-21.7 2.5-0.9 0-1.8 0-2.7-0.1-23.2-1-48-11.1-67.6-30.8-19.6-19.6-33.3-49.2-33.2-86.5 0-5.6 0.3-11.4 0.9-17.4l0.1 0c0.2-5.8 1.2-11.5 2.7-17.5 3-11.5 7.8-24.1 13.4-37 14-32.2 32.9-65.7 38.8-75.9 1.3-13 6.1-59.1 16.1-106 5.9-27.6 13.3-55.3 23.6-77.5 5.2-11.1 10.9-20.9 18.5-28.9 3.8-4 8.2-7.5 13.3-10.1 5.1-2.6 11.1-4.3 17.2-4.2 1.4 0 2.8 0.1 4.1 0.2l0.5 0 0.5 0.1c9 1.5 16.4 6.4 21.9 11.9 4.9 4.9 8.8 10.5 12.3 16.5 6.1 10.5 11 22.4 15.7 34.5 7 18.1 13.4 36.7 20 49.4 3.2 6.4 6.6 11.2 9 13.5 1.2 1.2 2.1 1.7 2.4 1.9l0.4 0.2 0.2-0.1c0.5-0.2 2.3-1.3 4.6-4.2 4.1-5 9.1-14.6 13.7-26.1 7.1-17.2 14-38.3 22.5-56.5 4.3-9.2 9-17.7 15.2-25.1 3.1-3.7 6.6-7.1 10.9-9.9 4.2-2.9 9.2-5.1 14.8-6l0.4-0.1 0.5 0C2719.3 0.1 2720.6 0 2722 0c6.1 0 12.1 1.6 17.2 4.2 9.6 5 16.5 12.8 22.3 21.6 10.1 15.6 17.5 35.5 23.8 57.3 9.3 32.6 15.7 69.2 19.8 97.9 3.1 21.6 4.9 38.6 5.6 45.8 4.1 7.2 15 26.4 26 48.7 7 14.1 14 29.3 19.4 43.6 2.7 7.1 5 14.1 6.7 20.6 1.3 4.9 2 9.6 2.5 14.3l0.4 3.3c0 0.2 0 0.4 0 0.7 0 0.1 0 0.1 0 0.2 0.6 5.7 0.9 11.2 0.9 16.5 0.1 37.3-13.6 66.9-33.2 86.5zm-568.4-356.6 0 219.1c0 32.9-14 47.6-46.9 47.6l-84.7 0 0-75.6 28 0c9.8 0 15.4-4.9 15.4-15.4l0-218.4c0-33.6 14-47.6 46.9-47.6l84.7 0 0 74.9-28 0c-9.8 0-15.4 5.6-15.4 15.4zM1881.4 80.7c-52.5 0-88.2 44.1-88.2 112 0 70.7 40.6 110.6 89.6 110.6 59.5 0 88.2-54.6 88.2-109.9 0-79.1-43.4-112.7-89.6-112.7zm176.4 23.8 0 359.1c0 32.9-14.7 47.6-47.6 47.6l-84.7 0 0-75.6 28 0c9.8 0 15.4-4.9 15.4-15.4l0-63c0-11.9 0.7-21 0.7-21l-1.4 0c0 0-25.2 43.4-102.9 43.4-94.5 0-162.4-73.5-162.4-186.9 0-110.6 62.3-186.9 158.9-186.9 81.9 0 111.3 58.1 111.3 58.1l1.4 0c0 0 0-5.6 0-13.3 0-21 11.9-36.4 44.1-36.4l81.9 0 0 74.9-27.3 0c-9.8 0-15.4 5.6-15.4 15.4zm-467.5 49.7c0-17.7-3.4-33.6-10.1-47.6-6.8-14-15.9-25.9-27.3-35.7-11.4-9.8-24.8-17.3-40.2-22.4-15.4-5.1-31.5-7.7-48.3-7.7-10.3 0-20.3 1.6-30.1 4.9-9.8 3.3-18.4 8-25.9 14.3-7.5 6.3-13.4 13.8-17.8 22.4-4.4 8.6-6.6 18.6-6.6 29.7 0 17.7 5.2 31.4 15.8 40.9 10.5 9.6 23.9 16.9 40.3 22 16.3 5.1 34.4 9 54.2 11.6 19.8 2.6 39.1 5.5 57.7 8.8 6.1 0.9 13.1 2.6 21 4.9 7.9 2.3 13.3 6.1 16.1 11.2l1.4 0 0-57.4zm44.1-76.3 0 191.8c0 24.3-4 44-11.9 59.1-7.9 15.2-18.2 26.9-30.8 35.3-12.6 8.4-26.8 14.1-42.7 17.1-15.9 3-31.7 4.5-47.6 4.5-41.5 0-75.7-9.6-102.5-28.7-26.8-19.1-41.4-49.9-43.7-92.4l44.1 0c0.9 29.4 10.4 50.7 28.3 64 18 13.3 40.7 19.9 68.3 19.9 13.1 0 25.3-1 36.7-3.1 11.4-2.1 21.5-5.9 30.1-11.5 8.6-5.6 15.4-13.2 20.3-22.7 4.9-9.6 7.4-21.8 7.4-36.7 0-9.8-1.3-17.7-3.8-23.8-2.6-6.1-6.2-10.7-10.8-14-4.7-3.3-10.6-5.7-17.8-7.4-7.2-1.6-15.3-2.9-24.1-3.9-23.8-2.8-47.2-5.7-70.3-8.7-23.1-3-43.9-8.3-62.3-15.7-18.4-7.5-33.2-18.3-44.4-32.5-11.2-14.2-16.8-34-16.8-59.1 0-18.2 3.1-33.9 9.4-47.2 6.3-13.3 14.9-24.3 25.9-32.9 11-8.6 23.8-15 38.5-19.2 14.7-4.2 30.5-6.3 47.2-6.3 17.3 0 32.4 1.6 45.5 4.9 13.1 3.3 24.6 8.1 34.6 14.4 10 6.3 19.1 14 27.3 23.1 8.2 9.1 16.2 19.5 24.1 31.1l1.4 0c0-9.3 0.6-17.8 1.8-25.5 1.2-7.7 3.6-14.4 7.3-19.9 3.7-5.6 9-9.9 15.8-12.9 6.8-3 15.8-4.6 27-4.6 6.1 0 11.1 0.2 15.1 0.7 4 0.5 8.5 1.2 13.6 2.1l0 37.1c-4.7-1.9-9.3-2.8-14-2.8-17.3 0-25.9 8.9-25.9 26.6zM1248 348.5c-10.3 11.9-23.9 21.1-40.9 27.6-17 6.5-38.1 9.8-63.3 9.8-12.6 0-25-1.7-37.1-5.2-12.1-3.5-23.3-8.4-33.6-14.7-10.3-6.3-19.2-14-26.9-23.1-7.7-9.1-13.7-19-17.9-29.7l-1.4 0 0 62.3-44.1 0 0-361.2 44.1 0 0 210.7c0.5 17.7 3.3 34.2 8.4 49.3 5.1 15.2 12.6 28.2 22.4 39.2 9.8 11 21.6 19.6 35.3 25.9 13.8 6.3 29.5 9.4 47.3 9.4 17.7 0 32.6-2.8 44.4-8.4 11.9-5.6 21.4-13.3 28.4-23.1 7-9.8 11.9-21.3 14.7-34.6 2.8-13.3 4.2-27.6 4.2-43l0-225.4 44.1 0 0 232.4c0 21.5-2.1 40.8-6.3 58.1-4.2 17.3-11.4 31.8-21.7 43.8zm-1140.9 135.4-44.1 0 0-108.5-63 0 0-37.1 63 0 0-247.1c-0.5-30.8 5.1-52 16.8-63.7 11.7-11.7 32.2-17.5 61.6-17.5 6.5 0 13.1 0.2 19.6 0.7 6.5 0.5 13.1 0.7 19.6 0.7l0 37.8c-12.6-1.4-25.2-2.1-37.8-2.1-15.9 0.9-25.8 5.5-29.7 13.6-4 8.2-5.9 19.5-5.9 33.9l0 243.6 73.5 0 0 37.1-73.5 0 0 108.5zM872.1 348.5c-10.3 11.9-23.9 21.1-40.9 27.6-17 6.5-38.1 9.8-63.3 9.8-12.6 0-25-1.7-37.1-5.2-12.1-3.5-23.3-8.4-33.6-14.7-10.3-6.3-19.2-14-26.9-23.1-7.7-9.1-13.7-19-17.9-29.7l-1.4 0 0 62.3-44.1 0 0-361.2 44.1 0 0 210.7c0.5 17.7 3.3 34.2 8.4 49.3 5.1 15.2 12.6 28.2 22.4 39.2 9.8 11 21.6 19.6 35.3 25.9 13.8 6.3 29.5 9.4 47.2 9.4 17.7 0 32.5-2.8 44.4-8.4 11.9-5.6 21.3-13.3 28.4-23.1 7-9.8 11.9-21.3 14.7-34.6 2.8-13.3 4.2-27.6 4.2-43l0-225.4 44.1 0 0 232.4c0 21.5-2.1 40.8-6.3 58.1-4.2 17.3-11.4 31.8-21.7 43.8zm1385.8 162.7-77 0 0-81.9 77 0 0 81.9zM475.2 154.2c0-17.7-3.4-33.6-10.1-47.6-6.8-14-15.9-25.9-27.3-35.7-11.4-9.8-24.8-17.3-40.2-22.4-15.4-5.1-31.5-7.7-48.3-7.7-10.3 0-20.3 1.6-30.1 4.9-9.8 3.3-18.4 8-25.9 14.3-7.5 6.3-13.4 13.8-17.8 22.4-4.4 8.6-6.6 18.6-6.6 29.7 0 17.7 5.2 31.4 15.8 40.9 10.5 9.6 23.9 16.9 40.2 22 16.3 5.1 34.4 9 54.2 11.6 19.8 2.6 39.1 5.5 57.7 8.8 6.1 0.9 13.1 2.6 21 4.9 7.9 2.3 13.3 6.1 16.1 11.2l1.4 0 0-57.4zm44.1-76.3 0 191.8c0 24.3-4 44-11.9 59.1-7.9 15.2-18.2 26.9-30.8 35.3-12.6 8.4-26.8 14.1-42.7 17.1-15.9 3-31.7 4.5-47.6 4.5-41.5 0-75.7-9.6-102.5-28.7-26.8-19.1-41.4-49.9-43.7-92.4l44.1 0c0.9 29.4 10.4 50.7 28.3 64 18 13.3 40.7 19.9 68.3 19.9 13.1 0 25.3-1 36.7-3.1 11.4-2.1 21.5-5.9 30.1-11.5 8.6-5.6 15.4-13.2 20.3-22.7 4.9-9.6 7.3-21.8 7.3-36.7 0-9.8-1.3-17.7-3.8-23.8-2.6-6.1-6.2-10.7-10.9-14-4.7-3.3-10.6-5.7-17.8-7.4-7.2-1.6-15.3-2.9-24.1-3.9-23.8-2.8-47.2-5.7-70.3-8.7-23.1-3-43.9-8.3-62.3-15.7-18.4-7.5-33.2-18.3-44.4-32.5-11.2-14.2-16.8-34-16.8-59.1 0-18.2 3.1-33.9 9.4-47.2 6.3-13.3 14.9-24.3 25.9-32.9 11-8.6 23.8-15 38.5-19.2 14.7-4.2 30.4-6.3 47.2-6.3 17.3 0 32.4 1.6 45.5 4.9 13.1 3.3 24.6 8.1 34.6 14.4 10 6.3 19.1 14 27.3 23.1 8.2 9.1 16.2 19.5 24.1 31.1l1.4 0c0-9.3 0.6-17.8 1.8-25.5 1.2-7.7 3.6-14.4 7.3-19.9 3.7-5.6 9-9.9 15.8-12.9 6.8-3 15.8-4.6 26.9-4.6 6.1 0 11.1 0.2 15.1 0.7 4 0.5 8.5 1.2 13.6 2.1l0 37.1c-4.7-1.9-9.3-2.8-14-2.8-17.3 0-25.9 8.9-25.9 26.6" fill="#4e5052"/></g></g></svg>